<svg t="1615259613473" class="icon" viewBox="0 0 1024 1024" version="1.1" xmlns="http://www.w3.org/2000/svg" p-id="3224" width="200" height="200"><path d="M832.2 913.9H192c-17.7 0-32-14.3-32-32V113.8c0-17.7 14.3-32 32-32h60.9c17.7 0 32 14.3 32 32s-14.3 32-32 32H224v704.1h576.1V145.8h-32c-17.7 0-32-14.3-32-32s14.3-32 32-32h64c17.7 0 32 14.3 32 32v768.1c0.1 17.7-14.3 32-31.9 32z" p-id="3225"></path><path d="M576.1 145.1h-128c-17.7 0-32-14.3-32-32s14.3-32 32-32h128c17.7 0 32 14.3 32 32s-14.3 32-32 32zM353 192.3c-17.7 0-32-14.3-32-32v-64c0-17.7 14.3-32 32-32s32 14.3 32 32v64.1c0 17.6-14.3 31.9-32 31.9z m319.6 0c-17.7 0-32-14.3-32-32v-64c0-17.7 14.3-32 32-32s32 14.3 32 32v64.1c0 17.6-14.3 31.9-32 31.9zM352.5 649.5c-17.7 0-32-14.3-32-32V297c0-17.7 14.3-32 32-32s32 14.3 32 32v320.5c0 17.7-14.3 32-32 32z m159.9 0c-17.7 0-32-14.3-32-32V402.9c0-17.7 14.3-32 32-32s32 14.3 32 32v214.6c0 17.7-14.3 32-32 32z m160 0c-17.7 0-32-14.3-32-32V505.8c0-17.7 14.3-32 32-32s32 14.3 32 32v111.7c0 17.7-14.4 32-32 32z m49.4 98.3h-418c-17.7 0-32-14.3-32-32s14.3-32 32-32h418c17.7 0 32 14.3 32 32s-14.3 32-32 32z" p-id="3226"></path></svg>