<svg t="1615426600498" class="icon" viewBox="0 0 1024 1024" version="1.1" xmlns="http://www.w3.org/2000/svg" p-id="1060" width="200" height="200"><path d="M821.333 800H547.584l-86.464 96.075a32 32 0 1 1-47.573-42.816l96-106.667A32 32 0 0 1 533.333 736h288a53.333 53.333 0 0 0 53.334-53.333v-448a53.333 53.333 0 0 0-53.334-53.334H202.667a53.333 53.333 0 0 0-53.334 53.334v448A53.333 53.333 0 0 0 202.667 736h138.666a32 32 0 0 1 0 64H202.667c-64.8 0-117.334-52.533-117.334-117.333v-448c0-64.8 52.534-117.334 117.334-117.334h618.666c64.8 0 117.334 52.534 117.334 117.334v448c0 64.8-52.534 117.333-117.334 117.333zM704 341.333a32 32 0 0 1 0 64H320a32 32 0 0 1 0-64h384zM512 512a32 32 0 0 1 0 64H320a32 32 0 0 1 0-64h192z" p-id="1061"></path></svg>