<svg t="1615426553410" class="icon" viewBox="0 0 1024 1024" version="1.1" xmlns="http://www.w3.org/2000/svg" p-id="919" width="200" height="200"><path d="M509.44 1018.368c-141.312 0-277.504-59.904-372.736-164.352l-19.968-21.504 19.968-21.504C232.448 706.56 368.128 646.656 509.44 646.656c141.312 0 277.504 59.904 372.736 164.352l19.968 21.504-19.968 21.504c-95.232 104.448-231.424 164.352-372.736 164.352zM204.8 832.512c81.92 77.824 190.976 121.856 304.64 121.856 113.664 0 222.72-44.032 304.64-121.856-81.92-77.824-190.976-121.856-304.64-121.856-113.664 0-222.72 44.032-304.64 121.856z m305.152-231.936c-89.088 0-161.792-72.704-161.792-161.792 0-89.088 72.704-161.792 161.792-161.792s161.792 72.704 161.792 161.792c0 89.088-72.192 161.792-161.792 161.792z m0-259.584c-53.76 0-97.792 44.032-97.792 97.792s44.032 97.792 97.792 97.792 97.792-44.032 97.792-97.792-43.52-97.792-97.792-97.792z" p-id="920"></path><path d="M119.296 719.36c-33.792-63.488-51.2-134.144-51.2-206.848C68.096 268.8 266.24 71.168 509.44 71.168s441.344 198.144 441.344 441.344c0 72.192-17.92 143.36-51.2 206.336A523.236 523.236 0 0 1 945.664 768c45.568-77.312 69.12-165.376 69.12-255.488 0-279.04-226.816-505.856-505.856-505.856C230.4 7.168 4.096 233.984 4.096 512.512 4.096 602.624 28.16 691.2 73.728 768c13.824-16.896 29.184-33.28 45.568-48.64z" p-id="921"></path></svg>