<svg t="1615259687696" class="icon" viewBox="0 0 1024 1024" version="1.1" xmlns="http://www.w3.org/2000/svg" p-id="3505" width="200" height="200"><path d="M825.702 997.235a30.615 30.615 0 0 1-22.91-10.226c-7.558-8.647-31.406-31.195-50.92-31.195-19.4 0-43.65 22.671-50.602 30.59a30.463 30.463 0 0 1-22.754 10.064c-4.161 0-8.081-0.811-11.635-2.508l-0.647-0.281-59.376-34.795-0.605-0.444a30.719 30.719 0 0 1-9.535-36.13c0-0.085 5.455-13.219 5.455-25.222 0-36.455-28.171-65.993-62.92-66.034h-2.509c-9.943 0-18.022-9.257-20.615-23.56a333.717 333.717 0 0 1-5.048-49.71c0-21.461 4.85-48.662 5.048-49.831 2.63-14.472 10.877-23.806 21.017-23.564h2.106c34.75-0.038 62.884-29.583 62.921-66.037 0-12-5.412-25.095-5.455-25.258a30.676 30.676 0 0 1 9.62-36.052l0.604-0.444 62.685-36.131 0.648-0.24a27.666 27.666 0 0 1 11.471-2.426c8.695 0 17.219 3.68 22.8 9.862 7.43 8.121 30.87 29.298 49.83 29.298 18.789 0 42.109-20.772 49.506-28.735a31.036 31.036 0 0 1 34.314-7.191l0.606 0.279 60.538 35.28 0.604 0.408a30.712 30.712 0 0 1 9.58 36.131c-0.037 0.12-5.495 13.215-5.495 25.216 0.043 36.455 28.21 65.958 62.966 66.036h2.101c10.108-0.242 18.39 9.056 21.016 23.564 0.2 1.17 5.047 28.372 5.047 49.748 0 21.42-4.846 48.66-5.092 49.795-2.583 14.466-10.908 23.8-21.012 23.56h-2.062c-34.755 0.041-62.923 29.581-62.966 66.035 0 11.965 5.46 25.136 5.494 25.258a30.72 30.72 0 0 1-9.613 36.093l-0.609 0.403-61.55 35.723-0.645 0.247a27.742 27.742 0 0 1-11.437 2.424h0.035zM811.16 924.41c0.238 0.163 0.847 0.403 1.494 0.403h0.077l45.796-26.51a85.318 85.318 0 0 1-6.144-29.38c0-40.658 30.306-74.16 68.99-76.344a243.139 243.139 0 0 0 3.556-34.675c0-13.536-2.993-31.525-3.556-34.716-38.64-2.14-68.951-35.643-68.99-76.262 0-13.698 5.052-26.756 6.144-29.42l-45.024-26.269h-0.2a3.23 3.23 0 0 0-1.74 0.486 127.78 127.78 0 0 1-16.652 14.67c-13.904 10.22-26.994 15.44-39.038 15.44-12.13 0-25.384-5.298-39.322-15.764a126.946 126.946 0 0 1-16.774-14.954 3.517 3.517 0 0 0-1.736-0.485h-0.165l-46.636 26.912c1.09 2.712 6.141 15.763 6.141 29.382-0.04 40.62-30.35 74.122-69.03 76.263a242.96 242.96 0 0 0-3.556 34.715c0 13.503 2.995 31.527 3.556 34.675 38.68 2.184 68.99 35.687 69.03 76.345 0 13.617-5.093 26.754-6.184 29.378l44.177 25.906h0.077a3.089 3.089 0 0 0 1.497-0.404c5.212-5.655 10.871-10.91 16.935-15.559 14.143-10.874 27.56-16.41 39.97-16.41 12.53 0 26.065 5.656 40.334 16.735 9.537 7.44 16.162 14.953 16.973 15.842z m-57.267-68.584c-52.262-0.038-94.57-44.453-94.656-99.255 0-54.723 42.437-99.22 94.656-99.22 52.133 0 94.61 44.497 94.61 99.22 0 54.761-42.438 99.255-94.61 99.255z m0-149.696c-26.552 0.04-48.096 22.635-48.096 50.44 0 27.884 21.542 50.436 48.096 50.436s48.05-22.593 48.091-50.437c-0.041-27.847-21.54-50.398-48.091-50.44zM487.034 907.393l51.204 81.637H65.993c-22.528-0.018-40.78-18.288-40.78-40.814v-83.864c-0.372-171.111 103.995-325.017 263.098-387.98-60.74-49.95-95.78-121.727-95.78-198.715 0.043-138.137 112.112-250.369 249.962-250.369 137.94 0 250.045 112.232 250.008 250.405a249.294 249.294 0 0 1-96.025 196.741l-14.509 11.355c-27.85 25.138-75.983 37.75-134.785 42.356l-4.608-0.161c-10.106 0-20.615 0.521-32.132 1.612-171.438 16.326-303.918 161.296-303.918 334.837v42.958h380.51z m-37.59-458.298c94.448 0 171.2-76.221 171.2-169.823 0-93.682-76.752-169.944-171.158-169.944-94.45 0-171.157 76.227-171.157 169.944v4.769c2.587 91.42 78.328 165.056 171.157 165.056h-0.042z m0 0" p-id="3506"></path><path d="M236.157 187.043H648.8v63.3H236.157z m-10.451 541.195h203.632v61.185H225.706z" p-id="3507"></path><path d="M296.929 657.015h61.186v203.633H296.93z" p-id="3508"></path></svg>