<svg t="1615426630762" class="icon" viewBox="0 0 1024 1024" version="1.1" xmlns="http://www.w3.org/2000/svg" p-id="1200" width="200" height="200"><path d="M851.968 554.325c36.195 0 65.536 29.342 65.536 65.536v256.683c0 36.195-29.341 65.536-65.536 65.536H619.861c-36.194 0-65.536-29.341-65.536-65.536V619.861c0-36.194 29.342-65.536 65.536-65.536h232.107zM150.187 699.051c22.621 0 40.96 18.338 40.96 40.96v152.917c0 22.622-18.339 40.96-40.96 40.96-22.622 0-40.96-18.338-40.96-40.96V740.011c0-22.622 18.338-40.96 40.96-40.96z m283.989 0c22.622 0 40.96 18.338 40.96 40.96v152.917c0 22.622-18.338 40.96-40.96 40.96s-40.96-18.338-40.96-40.96V740.011c0-22.622 18.338-40.96 40.96-40.96z m-141.995 35.498c22.622 0 40.96 18.339 40.96 40.96v81.92c0 22.622-18.338 40.96-40.96 40.96-22.621 0-40.96-18.338-40.96-40.96v-81.92c0-22.621 18.339-40.96 40.96-40.96z m543.403-98.304H636.245V860.16h199.339V636.245z m-401.408-81.92c22.622 0 40.96 18.339 40.96 40.96 0 22.622-18.338 40.96-40.96 40.96h-283.99c-22.62 0-40.96-18.338-40.96-40.96 0-22.621 18.34-40.96 40.96-40.96h283.99zM406.869 84.651c36.195 0 65.536 29.341 65.536 65.536v256.682c0 36.195-29.341 65.536-65.536 65.536H174.763c-36.195 0-65.536-29.341-65.536-65.536V150.187c0-36.195 29.341-65.536 65.536-65.536h232.106z m445.099 0c36.195 0 65.536 29.341 65.536 65.536v256.682c0 36.195-29.341 65.536-65.536 65.536H619.861c-36.194 0-65.536-29.341-65.536-65.536V150.187c0-36.195 29.342-65.536 65.536-65.536h232.107z m-461.483 81.92H191.147v223.914h199.338V166.571z m445.099 0H636.245v223.914h199.339V166.571z" p-id="1201"></path></svg>