<svg t="1615259560760" class="icon" viewBox="0 0 1024 1024" version="1.1" xmlns="http://www.w3.org/2000/svg" p-id="3083" width="200" height="200"><path d="M435.395 1012.352l-53.12-124.477-5.448-1.91a330.43 330.43 0 0 1-32.911-13.45l-5.013-2.438-126.643 49.859-108.232-108.232 49.864-126.663-2.514-5.11c-5.371-11.715-9.574-21.909-13.097-31.8l-1.956-5.315-124.913-54.15v-152.82l125.026-54.37 1.991-5.033a410.711 410.711 0 0 1 13.318-32.379l2.437-4.844-49.951-126.684L212.485 104.27l126.664 49.894 5.11-2.524a393.605 393.605 0 0 1 31.856-13.133l5.305-1.9 54.118-124.958h152.878l54.374 124.529 5.054 1.966a448.44 448.44 0 0 1 33.398 13.931l5.15 2.366 125.384-50.647L920.223 212.46l-50.719 125.532 2.504 5.156c4.684 9.917 9.16 20.792 14.028 34.114l1.849 5.3 124.692 52.797v153.426L888.26 641.05l-1.936 5.268a507.136 507.136 0 0 1-14.198 34.647l-2.406 4.767 50.719 125.614-108.4 108.657-125.436-50.683-5.135 2.396c-9.534 4.572-20.378 9.021-34.222 14.064l-5.269 1.941-53.094 124.626H435.395z m50.826-76.431h51.876l46.965-110.67 17.419-5.145c23.244-6.722 44.615-15.478 63.467-26.03l15.903-8.811 111.488 45.015 36.736-36.736-45.01-111.514 8.827-15.974a327.798 327.798 0 0 0 26.081-63.38l5.105-17.378 110.955-46.582V486.8l-110.669-47.227-5.166-17.443c-6.727-23.255-15.498-44.631-26.05-63.483l-8.781-15.893 44.99-111.477-36.737-36.736-111.482 45-15.95-8.802c-18.595-10.337-39.546-19.01-62.238-25.774l-17.28-5.125-48.363-111.007h-52.24l-48.384 111.007-17.275 5.12a300.861 300.861 0 0 0-61.368 25.129l-15.775 8.56-112.353-44.36-36.864 36.813 44.14 112.364-8.602 15.795c-9.912 18.509-18.335 39.112-25.068 61.302l-5.181 17.372-111.002 48.353v52.25l111.012 48.374 5.161 17.218c6.247 21.663 14.7 42.353 25.104 61.379l8.57 15.76-44.14 112.347 36.88 36.905 112.354-44.431 15.774 8.591c19.144 10.302 40.156 18.842 62.485 25.421l17.449 5.15 47.237 110.67z" p-id="3084"></path><path d="M509.988 715.612c-111.621 0-202.43-90.803-202.43-202.414 0-111.616 90.809-202.424 202.43-202.424 111.616 0 202.424 90.808 202.424 202.424 0.005 111.606-90.808 202.414-202.424 202.414z m0-313.062c-61.015 0-110.648 49.638-110.648 110.648s49.633 110.643 110.648 110.643c61.01 0 110.648-49.633 110.648-110.643 0.005-61.01-49.638-110.648-110.648-110.648z" p-id="3085"></path></svg>